<?xml version="1.0" encoding="utf-8"?>
<!-- Generator: Adobe Illustrator 19.1.0, SVG Export Plug-In . SVG Version: 6.00 Build 0)  -->
<svg version="1.1" id="Capa_1" xmlns="http://www.w3.org/2000/svg" xmlns:xlink="http://www.w3.org/1999/xlink" x="0px" y="0px"
	 viewBox="0 0 157.9 157.9" style="enable-background:new 0 0 157.9 157.9;" xml:space="preserve">
<style type="text/css">
	.st0{fill:#FFFFFF;}
	.st1{fill:#448AFF;}
	.st2{fill:#3F51B5;}
	.st3{fill:#303F9F;}
</style>

<g>
	<g>
		<path class="st1" d="M137,58.2c-5.8,5.5-16.1,8.7-22.6,7.2C103.2,63,95.8,55,86.5,49c-0.8-0.5-1.6-1-2.4-1.6
			c-1.9-0.5-3.7-1.2-5.4-2c-5.1-2.3-9.2-5.8-14.9-6.7c-10.4-1.6-20.1,1-26.2,5.4c-4.8,6.1-8.4,13.1-10.5,20.8
			C38.4,47.4,54,53.7,69.5,65c25.6,18.6,50.9,35.9,71.6,22.4c0.3-2.4,0.5-4.8,0.5-7.3C141.2,72,140,66.2,137,58.2z"/>
	</g>
	<g>
		<path class="st0" d="M28.9,101.7c2.3,5.7,5.4,11,9.3,15.7c14-2.6,28,10.3,41.9,21c1,0,2,0.1,3,0.1c13.1,0,25.2-4.3,35-11.7
			C69.6,130.7,61.6,85.1,28.9,101.7z"/>
	</g>
	<path class="st2" d="M97,65.2c15.5-11.3,31.1-17.5,42.4-0.1c-3.9-14.4-13.2-26.6-25.6-34.3c-4.7-0.3-10.1,0.1-16.6,1.3
		c-21.7,4-42.3,22.5-59.3,11.5c-8.1,10-13,22.8-13,36.7c0,2.5,0.2,4.9,0.5,7.3C46,101.1,71.3,83.8,97,65.2z"/>
	<path class="st2" d="M57.2,116.6c-5.7-0.5-14.8-2.4-23.5-5.6c10.3,16.5,28.6,27.6,49.5,27.6c1,0,2,0,3-0.1
		c13.9-10.7,27.8-23.6,41.9-21c3.9-4.7,7-10,9.3-15.7C124.7,84,84.3,119,57.2,116.6z"/>
	<path class="st3" d="M68.7,34.6c9.7-1.4,19.2-7.9,28.8-10.2c-4.5-1.1-9.2-1.7-14.1-1.7c-11,0-21.3,3.1-30.1,8.5
		C57.4,34.5,63.1,35.4,68.7,34.6z"/>
</g>
</svg>
