<?xml version="1.0" encoding="utf-8"?>
<!-- Generator: Adobe Illustrator 19.1.0, SVG Export Plug-In . SVG Version: 6.00 Build 0)  -->
<svg version="1.1" id="Capa_1" xmlns="http://www.w3.org/2000/svg" xmlns:xlink="http://www.w3.org/1999/xlink" x="0px" y="0px"
	 viewBox="0 0 801.1 157.9" style="enable-background:new 0 0 801.1 157.9;" xml:space="preserve">
<style type="text/css">
	.st0{fill:#FFFFFF;}
	.st1{fill:#448AFF;}
	.st2{fill:#3F51B5;}
	.st3{fill:#303F9F;}
</style>
<g>
	<g>
		<g>
			<path class="st0" d="M167.7,72.1c0-15.1,0-17.8-0.2-20.9c-0.2-3.3-1-4.8-4.2-5.5c-0.8-0.2-2.4-0.3-3.3-0.3
				c-0.4,0-0.8-0.2-0.8-0.6c0-0.6,0.5-0.8,1.6-0.8c4.4,0,10.2,0.3,10.9,0.3c2.1,0,7.7-0.3,12.2-0.3c12.1,0,16.5,4.1,18,5.5
				c2.1,2,4.8,6.4,4.8,11.5c0,13.8-10.1,23.1-23.8,23.1c-0.5,0-1.5,0-2-0.1c-0.5,0-1.1-0.2-1.1-0.7c0-0.8,0.6-0.9,2.6-0.9
				c9.4,0,16.8-6.9,16.8-15.8c0-3.2-0.3-9.7-5.4-14.9c-5.1-5.2-11-4.8-13.3-4.8c-1.6,0-3.3,0.2-4.2,0.6c-0.6,0.2-0.8,0.9-0.8,1.8
				v39.8c0,9.3,0,16.9,0.5,21c0.3,2.8,0.9,4.9,3.8,5.3c1.4,0.2,3.5,0.4,4.4,0.4c0.6,0,0.8,0.3,0.8,0.6c0,0.5-0.5,0.8-1.5,0.8
				c-5.3,0-11.4-0.3-11.9-0.3c-0.3,0-6.4,0.3-9.3,0.3c-1.1,0-1.6-0.2-1.6-0.8c0-0.3,0.2-0.6,0.8-0.6c0.9,0,2-0.2,2.9-0.4
				c1.9-0.4,2.4-2.5,2.8-5.3c0.5-4.1,0.5-11.7,0.5-21V72.1z"/>
			<path class="st0" d="M235.8,56.6c1.1-2.7,1.5-3.2,2-3.2c0.9,0,1.2,1.2,2,3c1.5,3.5,15.2,37.5,20.4,50c3.1,7.4,5.4,8.4,7.3,9
				c1.3,0.4,2.5,0.5,3.4,0.5c0.5,0,1.1,0.2,1.1,0.7s-1,0.7-1.9,0.7c-1.3,0-7.6,0-13.5-0.2c-1.6-0.1-3-0.1-3-0.6
				c0-0.4,0.2-0.4,0.6-0.6c0.5-0.2,1.4-0.9,0.8-2.2l-7.7-18.9c-0.2-0.4-0.3-0.5-0.8-0.5h-19.7c-0.4,0-0.7,0.2-0.9,0.7l-4.8,13.2
				c-0.8,2-1.3,4.1-1.3,5.5c0,1.6,1.4,2.2,2.9,2.2h0.8c0.7,0,0.9,0.3,0.9,0.7c0,0.5-0.5,0.7-1.3,0.7c-2,0-6.7-0.3-7.6-0.3
				c-0.9,0-5.1,0.3-8.6,0.3c-1.1,0-1.7-0.2-1.7-0.7c0-0.4,0.4-0.7,0.8-0.7c0.6,0,1.8-0.1,2.5-0.2c3.9-0.5,5.5-3.4,7.2-7.6
				L235.8,56.6z M245.3,90.9c0.4,0,0.4-0.2,0.3-0.6l-8.4-22.6c-0.5-1.3-1-1.3-1.5,0l-7.9,22.6c-0.1,0.4,0,0.6,0.3,0.6H245.3z"/>
			<path class="st0" d="M283.9,109.5c-8.3-7.2-10.4-16.6-10.4-24.4c0-5.5,2-15.1,9.6-22.5c5.1-4.9,12.9-8.8,26-8.8
				c3.4,0,8.2,0.3,12.4,1c3.2,0.6,5.9,1.2,8.7,1.3c0.9,0,1.1,0.4,1.1,0.9c0,0.7-0.2,1.6-0.4,4.6c-0.1,2.7-0.1,7.3-0.2,8.4
				c-0.1,1.3-0.5,1.7-1,1.7c-0.6,0-0.7-0.6-0.7-1.7c0-3.2-1.4-6.5-3.6-8.2c-3-2.5-9.2-4.5-16.8-4.5c-10.9,0-16.2,2.9-19.2,5.7
				c-6.3,5.8-7.6,13.2-7.6,21.5c0,15.8,12.5,29.8,30.7,29.8c6.4,0,10.7-0.5,14-3.9c1.8-1.8,3-5.3,3.3-6.9c0.2-0.9,0.3-1.2,0.9-1.2
				c0.4,0,0.8,0.6,0.8,1.2s-1.2,7.7-2,10.6c-0.5,1.6-0.7,1.8-2.1,2.4c-3.5,1.4-9.9,1.8-15.4,1.8
				C299.2,118.3,290.6,115.3,283.9,109.5z"/>
			<path class="st0" d="M359.6,93.3c0,7.9,0,14.4,0.4,17.8c0.3,2.4,0.6,4,3.1,4.4c1.3,0.2,3.1,0.4,3.9,0.4c0.5,0,0.7,0.4,0.7,0.7
				c0,0.4-0.4,0.7-1.3,0.7c-4.8,0-10.3-0.3-10.7-0.3c-0.5,0-5.8,0.3-8.4,0.3c-0.9,0-1.4-0.2-1.4-0.7c0-0.3,0.2-0.7,0.7-0.7
				c0.8,0,1.8-0.2,2.6-0.4c1.7-0.4,1.9-1.9,2.2-4.4c0.4-3.4,0.5-9.9,0.5-17.8V78.8c0-12.8,0-15.1-0.2-17.7c-0.2-2.8-0.9-4.1-2.7-4.4
				c-1-0.2-2-0.3-2.6-0.3c-0.4,0-0.7-0.4-0.7-0.7c0-0.5,0.4-0.7,1.4-0.7c2.8,0,8.1,0.2,8.6,0.2c0.4,0,5.9-0.2,8.5-0.2
				c1,0,1.4,0.2,1.4,0.7c0,0.3-0.4,0.7-0.7,0.7c-0.6,0-1.2,0-2.1,0.2c-2.3,0.5-2.8,1.6-3,4.6c-0.1,2.6-0.1,4.9-0.1,17.7L359.6,93.3
				L359.6,93.3z"/>
			<path class="st0" d="M387.6,78.8c0-12.8,0-15.1-0.2-17.7c-0.2-2.8-0.7-4.2-3.5-4.6c-0.7-0.1-2.1-0.2-2.9-0.2
				c-0.3,0-0.7-0.4-0.7-0.7c0-0.5,0.4-0.7,1.4-0.7c3.9,0,9.2,0.2,9.7,0.2c1.6,0,20.2,0.1,22.1,0c1.6-0.1,3.1-0.1,3.9-0.4
				c0.5-0.1,0.9-0.5,1.2-0.5c0.4,0,0.6,0.4,0.6,0.8c0,0.6-0.4,1.6-0.7,3.9c-0.1,0.8-0.2,4.5-0.4,5.4c-0.1,0.4-0.4,0.9-0.8,0.9
				s-0.7-0.4-0.7-1c0-0.7-0.3-2-0.8-3.1s-2.5-2.4-5.8-2.4l-13.9-0.2c-0.5,0-0.7,0.2-0.7,0.9v22.5c0,0.5,0,0.8,0.6,0.8l11.6-0.1
				c1.5,0,2.7,0,3.9-0.1c2-0.2,3.2-0.5,4-1.4c0.4-0.5,0.8-0.9,1.1-0.9c0.4,0,0.5,0.3,0.5,0.7c0,0.5-0.6,1.8-0.8,4.6
				c-0.2,1.6-0.3,4.9-0.3,5.5c0,0.8-0.2,1.6-0.8,1.6c-0.5,0-0.6-0.4-0.6-0.8c-0.1-0.9-0.2-2-0.6-3c-0.4-1.2-1.7-2.2-4.4-2.6
				c-2.1-0.3-12.2-0.2-13.7-0.2c-0.5,0-0.6,0.2-0.6,0.8v6.6c0,8.1,0,14.6,0.4,17.8c0.3,2.4,0.8,4,3.1,4.4c1.3,0.2,3.1,0.4,3.9,0.4
				c0.5,0,0.7,0.4,0.7,0.7c0,0.4-0.4,0.7-1.4,0.7c-4.7,0-10.3-0.3-10.7-0.3c-0.5,0-5.8,0.3-8.4,0.3c-0.9,0-1.4-0.2-1.4-0.7
				c0-0.3,0.2-0.7,0.7-0.7c0.8,0,1.8-0.3,2.6-0.4c1.7-0.3,1.8-1.9,2.2-4.4c0.5-3.4,0.5-9.9,0.5-17.8L387.6,78.8L387.6,78.8z"/>
			<path class="st0" d="M447.1,93.3c0,7.9,0,14.4,0.4,17.8c0.3,2.4,0.6,4,3.1,4.4c1.3,0.2,3.1,0.4,3.9,0.4c0.5,0,0.7,0.4,0.7,0.7
				c0,0.4-0.4,0.7-1.4,0.7c-4.7,0-10.3-0.3-10.7-0.3c-0.5,0-5.8,0.3-8.4,0.3c-0.9,0-1.4-0.2-1.4-0.7c0-0.3,0.2-0.7,0.7-0.7
				c0.8,0,1.8-0.2,2.6-0.4c1.6-0.4,1.9-1.9,2.2-4.4c0.4-3.4,0.5-9.9,0.5-17.8V78.8c0-12.8,0-15.1-0.2-17.7c-0.2-2.8-0.9-4.1-2.7-4.4
				c-1-0.2-2-0.3-2.6-0.3c-0.4,0-0.7-0.4-0.7-0.7c0-0.5,0.4-0.7,1.4-0.7c2.8,0,8.1,0.2,8.6,0.2c0.4,0,5.9-0.2,8.5-0.2
				c1,0,1.4,0.2,1.4,0.7c0,0.3-0.4,0.7-0.7,0.7c-0.6,0-1.2,0-2.1,0.2c-2.3,0.5-2.8,1.6-3,4.6c-0.1,2.6-0.1,4.9-0.1,17.7L447.1,93.3
				L447.1,93.3z"/>
			<path class="st0" d="M476.4,109.5c-8.3-7.2-10.4-16.6-10.4-24.4c0-5.5,2-15.1,9.6-22.5c5.1-4.9,12.9-8.8,26-8.8
				c3.4,0,8.2,0.3,12.4,1c3.2,0.6,5.9,1.2,8.7,1.3c0.9,0,1.1,0.4,1.1,0.9c0,0.7-0.2,1.6-0.4,4.6c-0.1,2.7-0.1,7.3-0.2,8.4
				c-0.1,1.3-0.5,1.7-1,1.7c-0.6,0-0.7-0.6-0.7-1.7c0-3.2-1.4-6.5-3.6-8.2c-3-2.5-9.2-4.5-16.8-4.5c-10.9,0-16.2,2.9-19.2,5.7
				c-6.3,5.8-7.7,13.2-7.7,21.5c0,15.8,12.5,29.8,30.7,29.8c6.4,0,10.7-0.5,14-3.9c1.8-1.8,3-5.3,3.3-6.9c0.2-0.9,0.3-1.2,0.9-1.2
				c0.4,0,0.8,0.6,0.8,1.2s-1.2,7.7-2,10.6c-0.5,1.6-0.7,1.8-2.1,2.4c-3.5,1.4-9.9,1.8-15.4,1.8
				C491.7,118.3,483.1,115.3,476.4,109.5z"/>
		</g>
		<g>
			<path class="st0" d="M545.9,113.5c-1.3-0.6-1.6-1-1.6-2.8c0-4.4,0.4-9.6,0.5-10.9c0-1.3,0.4-2.1,1.1-2.1c0.8,0,0.9,0.8,0.9,1.3
				c0,1.1,0.3,2.8,0.8,4.3c1.8,6.1,8.2,8.1,13.6,8.1c7.4,0,11.8-4.6,11.8-10.5c0-3.6-0.9-7.2-8.4-11.6l-4.9-2.9
				c-10.1-5.9-13.4-11.4-13.4-18.7c0-10.1,9.7-16.6,21.5-16.6c5.5,0,9.9,0.8,12.1,1.4c0.8,0.2,1.2,0.5,1.2,1.1
				c0,1.1-0.3,3.4-0.3,9.9c0,1.7-0.4,2.6-1.1,2.6c-0.6,0-0.9-0.5-0.9-1.5c0-0.8-0.4-3.3-2.2-5.4c-1.3-1.6-4-3.9-9.5-3.9
				c-6.1,0-11.6,3.2-11.6,8.8c0,3.7,1.4,6.6,9,10.8l3.5,1.9c11.2,6.2,14.7,12.5,14.7,19.9c0,6.1-2.3,11-8.5,15.4
				c-4.1,2.9-9.7,3.4-14.2,3.4C554.8,115.7,549.6,115.2,545.9,113.5z"/>
			<path class="st0" d="M593.5,83.4c0-14,9.9-32.3,35.7-32.3c21.5,0,34.9,11.9,34.9,30.8s-13.8,33.7-35.7,33.7
				C603.6,115.7,593.5,98.1,593.5,83.4z M651.5,85c0-18.2-10.9-29.4-24.7-29.4c-9.5,0-20.6,5-20.6,25.4c0,16.9,9.7,30.3,25.8,30.3
				C637.9,111.2,651.5,108.4,651.5,85z"/>
			<path class="st0" d="M691.5,91c0,7.9,0.1,13.8,0.5,17.2c0.3,2.4,0.9,4,3.4,4.4c1.2,0.2,3,0.3,4.2,0.3c1.1,0,1.5,0.5,1.5,0.9
				c0,0.6-0.6,0.9-1.8,0.9c-5.4,0-11.4-0.3-13.7-0.3c-2.2,0-7.6,0.3-10.8,0.3c-1.2,0-1.7-0.2-1.7-0.9c0-0.4,0.3-0.9,1.3-0.9
				c1.3,0,2.2-0.1,3-0.3c1.7-0.4,2.2-1.9,2.5-4.4c0.4-3.5,0.4-9.6,0.4-17.5V76.2c0-12.5,0-14.8-0.1-17.4c-0.2-2.8-1-3.8-3.7-4.5
				c-0.7-0.2-2.1-0.3-3.4-0.3c-0.8,0-1.5-0.3-1.5-0.9s0.7-0.8,2-0.8c4.4,0,9.8,0.2,12.2,0.2c3.3,0,22.2,0.1,24.2,0
				c1.6-0.1,2.6-0.2,3.5-0.4c0.5-0.1,0.9-0.5,1.4-0.5c0.3,0,0.6,0.4,0.6,0.8c0,0.6-0.4,1.5-0.7,3.7c-0.1,0.9-0.3,5.7-0.4,6.7
				c-0.1,0.7-0.3,1.6-0.9,1.6s-1.1-0.4-1.1-1.4c0-0.7,0.1-1.9-0.5-3.1c-0.6-1.2-2.2-2.4-5.4-2.5l-14.1-0.3c-0.5,0-0.8,0.2-0.8,1.2
				v20c0,0.5,0.1,0.8,0.6,0.8l11.9-0.1c1.5,0,2.6,0,3.9-0.1c1.5-0.1,2.8-0.4,3.6-1.5c0.5-0.5,0.7-0.9,1.2-0.9c0.3,0,0.5,0.3,0.5,0.8
				s-0.4,2.7-0.7,5.3c-0.2,1.6-0.3,5.4-0.3,6c0,0.7-0.1,1.8-1,1.8c-0.5,0-0.8-0.6-0.8-1.2s-0.2-1.6-0.6-2.5c-0.4-1.2-1.5-2.8-4.1-3
				c-2.1-0.2-12.2-0.3-13.7-0.3c-0.4,0-0.6,0.1-0.6,0.7L691.5,91L691.5,91z"/>
			<path class="st0" d="M746.3,57.4l-12.7,0.3c-4.9,0.1-7,0.7-8.2,2.5c-0.9,1.2-1.3,2.2-1.5,2.8c-0.2,0.7-0.4,1.1-1,1.1
				s-0.8-0.5-0.8-1.4c0-1.3,1.7-9.3,1.8-10c0.2-1.1,0.5-1.6,1-1.6c0.7,0,1.5,0.7,3.7,1c2.5,0.3,5.7,0.4,8.5,0.4h34.6
				c2.7,0,4.6-0.2,5.8-0.4c1.4-0.2,2-0.4,2.3-0.4c0.6,0,0.7,0.5,0.7,1.7c0,1.7-0.2,7.9-0.2,10c-0.1,0.9-0.3,1.4-0.8,1.4
				c-0.7,0-0.9-0.4-1-1.6l-0.1-0.9c-0.2-2.1-2.4-4.6-10.1-4.8l-10.8-0.2v33.3c0,7.6,0.1,14.1,0.5,17.6c0.3,2.3,0.8,3.9,3.3,4.3
				c1.2,0.2,3.1,0.3,4.4,0.3c1,0,1.4,0.5,1.4,0.9c0,0.6-0.7,0.9-1.6,0.9c-5.6,0-11.3-0.3-13.8-0.3c-1.9,0-7.7,0.3-11.1,0.3
				c-1.1,0-1.6-0.3-1.6-0.9c0-0.4,0.3-0.9,1.4-0.9c1.3,0,2.3-0.1,3-0.3c1.7-0.4,2.2-1.9,2.5-4.4c0.4-3.5,0.4-10,0.4-17.5L746.3,57.4
				L746.3,57.4z"/>
		</g>
	</g>
	<g>
		<g>
			<path class="st0" d="M167.7,72.1c0-15.1,0-17.8-0.2-20.9c-0.2-3.3-1-4.8-4.2-5.5c-0.8-0.2-2.4-0.3-3.3-0.3
				c-0.4,0-0.8-0.2-0.8-0.6c0-0.6,0.5-0.8,1.6-0.8c4.4,0,10.2,0.3,10.9,0.3c2.1,0,7.7-0.3,12.2-0.3c12.1,0,16.5,4.1,18,5.5
				c2.1,2,4.8,6.4,4.8,11.5c0,13.8-10.1,23.1-23.8,23.1c-0.5,0-1.5,0-2-0.1c-0.5,0-1.1-0.2-1.1-0.7c0-0.8,0.6-0.9,2.6-0.9
				c9.4,0,16.8-6.9,16.8-15.8c0-3.2-0.3-9.7-5.4-14.9c-5.1-5.2-11-4.8-13.3-4.8c-1.6,0-3.3,0.2-4.2,0.6c-0.6,0.2-0.8,0.9-0.8,1.8
				v39.8c0,9.3,0,16.9,0.5,21c0.3,2.8,0.9,4.9,3.8,5.3c1.4,0.2,3.5,0.4,4.4,0.4c0.6,0,0.8,0.3,0.8,0.6c0,0.5-0.5,0.8-1.5,0.8
				c-5.3,0-11.4-0.3-11.9-0.3c-0.3,0-6.4,0.3-9.3,0.3c-1.1,0-1.6-0.2-1.6-0.8c0-0.3,0.2-0.6,0.8-0.6c0.9,0,2-0.2,2.9-0.4
				c1.9-0.4,2.4-2.5,2.8-5.3c0.5-4.1,0.5-11.7,0.5-21V72.1z"/>
			<path class="st0" d="M235.8,56.6c1.1-2.7,1.5-3.2,2-3.2c0.9,0,1.2,1.2,2,3c1.5,3.5,15.2,37.5,20.4,50c3.1,7.4,5.4,8.4,7.3,9
				c1.3,0.4,2.5,0.5,3.4,0.5c0.5,0,1.1,0.2,1.1,0.7s-1,0.7-1.9,0.7c-1.3,0-7.6,0-13.5-0.2c-1.6-0.1-3-0.1-3-0.6
				c0-0.4,0.2-0.4,0.6-0.6c0.5-0.2,1.4-0.9,0.8-2.2l-7.7-18.9c-0.2-0.4-0.3-0.5-0.8-0.5h-19.7c-0.4,0-0.7,0.2-0.9,0.7l-4.8,13.2
				c-0.8,2-1.3,4.1-1.3,5.5c0,1.6,1.4,2.2,2.9,2.2h0.8c0.7,0,0.9,0.3,0.9,0.7c0,0.5-0.5,0.7-1.3,0.7c-2,0-6.7-0.3-7.6-0.3
				c-0.9,0-5.1,0.3-8.6,0.3c-1.1,0-1.7-0.2-1.7-0.7c0-0.4,0.4-0.7,0.8-0.7c0.6,0,1.8-0.1,2.5-0.2c3.9-0.5,5.5-3.4,7.2-7.6
				L235.8,56.6z M245.3,90.9c0.4,0,0.4-0.2,0.3-0.6l-8.4-22.6c-0.5-1.3-1-1.3-1.5,0l-7.9,22.6c-0.1,0.4,0,0.6,0.3,0.6H245.3z"/>
			<path class="st0" d="M283.9,109.5c-8.3-7.2-10.4-16.6-10.4-24.4c0-5.5,2-15.1,9.6-22.5c5.1-4.9,12.9-8.8,26-8.8
				c3.4,0,8.2,0.3,12.4,1c3.2,0.6,5.9,1.2,8.7,1.3c0.9,0,1.1,0.4,1.1,0.9c0,0.7-0.2,1.6-0.4,4.6c-0.1,2.7-0.1,7.3-0.2,8.4
				c-0.1,1.3-0.5,1.7-1,1.7c-0.6,0-0.7-0.6-0.7-1.7c0-3.2-1.4-6.5-3.6-8.2c-3-2.5-9.2-4.5-16.8-4.5c-10.9,0-16.2,2.9-19.2,5.7
				c-6.3,5.8-7.6,13.2-7.6,21.5c0,15.8,12.5,29.8,30.7,29.8c6.4,0,10.7-0.5,14-3.9c1.8-1.8,3-5.3,3.3-6.9c0.2-0.9,0.3-1.2,0.9-1.2
				c0.4,0,0.8,0.6,0.8,1.2s-1.2,7.7-2,10.6c-0.5,1.6-0.7,1.8-2.1,2.4c-3.5,1.4-9.9,1.8-15.4,1.8
				C299.2,118.3,290.6,115.3,283.9,109.5z"/>
			<path class="st0" d="M359.6,93.3c0,7.9,0,14.4,0.4,17.8c0.3,2.4,0.6,4,3.1,4.4c1.3,0.2,3.1,0.4,3.9,0.4c0.5,0,0.7,0.4,0.7,0.7
				c0,0.4-0.4,0.7-1.3,0.7c-4.8,0-10.3-0.3-10.7-0.3c-0.5,0-5.8,0.3-8.4,0.3c-0.9,0-1.4-0.2-1.4-0.7c0-0.3,0.2-0.7,0.7-0.7
				c0.8,0,1.8-0.2,2.6-0.4c1.7-0.4,1.9-1.9,2.2-4.4c0.4-3.4,0.5-9.9,0.5-17.8V78.8c0-12.8,0-15.1-0.2-17.7c-0.2-2.8-0.9-4.1-2.7-4.4
				c-1-0.2-2-0.3-2.6-0.3c-0.4,0-0.7-0.4-0.7-0.7c0-0.5,0.4-0.7,1.4-0.7c2.8,0,8.1,0.2,8.6,0.2c0.4,0,5.9-0.2,8.5-0.2
				c1,0,1.4,0.2,1.4,0.7c0,0.3-0.4,0.7-0.7,0.7c-0.6,0-1.2,0-2.1,0.2c-2.3,0.5-2.8,1.6-3,4.6c-0.1,2.6-0.1,4.9-0.1,17.7L359.6,93.3
				L359.6,93.3z"/>
			<path class="st0" d="M387.6,78.8c0-12.8,0-15.1-0.2-17.7c-0.2-2.8-0.7-4.2-3.5-4.6c-0.7-0.1-2.1-0.2-2.9-0.2
				c-0.3,0-0.7-0.4-0.7-0.7c0-0.5,0.4-0.7,1.4-0.7c3.9,0,9.2,0.2,9.7,0.2c1.6,0,20.2,0.1,22.1,0c1.6-0.1,3.1-0.1,3.9-0.4
				c0.5-0.1,0.9-0.5,1.2-0.5c0.4,0,0.6,0.4,0.6,0.8c0,0.6-0.4,1.6-0.7,3.9c-0.1,0.8-0.2,4.5-0.4,5.4c-0.1,0.4-0.4,0.9-0.8,0.9
				s-0.7-0.4-0.7-1c0-0.7-0.3-2-0.8-3.1s-2.5-2.4-5.8-2.4l-13.9-0.2c-0.5,0-0.7,0.2-0.7,0.9v22.5c0,0.5,0,0.8,0.6,0.8l11.6-0.1
				c1.5,0,2.7,0,3.9-0.1c2-0.2,3.2-0.5,4-1.4c0.4-0.5,0.8-0.9,1.1-0.9c0.4,0,0.5,0.3,0.5,0.7c0,0.5-0.6,1.8-0.8,4.6
				c-0.2,1.6-0.3,4.9-0.3,5.5c0,0.8-0.2,1.6-0.8,1.6c-0.5,0-0.6-0.4-0.6-0.8c-0.1-0.9-0.2-2-0.6-3c-0.4-1.2-1.7-2.2-4.4-2.6
				c-2.1-0.3-12.2-0.2-13.7-0.2c-0.5,0-0.6,0.2-0.6,0.8v6.6c0,8.1,0,14.6,0.4,17.8c0.3,2.4,0.8,4,3.1,4.4c1.3,0.2,3.1,0.4,3.9,0.4
				c0.5,0,0.7,0.4,0.7,0.7c0,0.4-0.4,0.7-1.4,0.7c-4.7,0-10.3-0.3-10.7-0.3c-0.5,0-5.8,0.3-8.4,0.3c-0.9,0-1.4-0.2-1.4-0.7
				c0-0.3,0.2-0.7,0.7-0.7c0.8,0,1.8-0.3,2.6-0.4c1.7-0.3,1.8-1.9,2.2-4.4c0.5-3.4,0.5-9.9,0.5-17.8L387.6,78.8L387.6,78.8z"/>
			<path class="st0" d="M447.1,93.3c0,7.9,0,14.4,0.4,17.8c0.3,2.4,0.6,4,3.1,4.4c1.3,0.2,3.1,0.4,3.9,0.4c0.5,0,0.7,0.4,0.7,0.7
				c0,0.4-0.4,0.7-1.4,0.7c-4.7,0-10.3-0.3-10.7-0.3c-0.5,0-5.8,0.3-8.4,0.3c-0.9,0-1.4-0.2-1.4-0.7c0-0.3,0.2-0.7,0.7-0.7
				c0.8,0,1.8-0.2,2.6-0.4c1.6-0.4,1.9-1.9,2.2-4.4c0.4-3.4,0.5-9.9,0.5-17.8V78.8c0-12.8,0-15.1-0.2-17.7c-0.2-2.8-0.9-4.1-2.7-4.4
				c-1-0.2-2-0.3-2.6-0.3c-0.4,0-0.7-0.4-0.7-0.7c0-0.5,0.4-0.7,1.4-0.7c2.8,0,8.1,0.2,8.6,0.2c0.4,0,5.9-0.2,8.5-0.2
				c1,0,1.4,0.2,1.4,0.7c0,0.3-0.4,0.7-0.7,0.7c-0.6,0-1.2,0-2.1,0.2c-2.3,0.5-2.8,1.6-3,4.6c-0.1,2.6-0.1,4.9-0.1,17.7L447.1,93.3
				L447.1,93.3z"/>
			<path class="st0" d="M476.4,109.5c-8.3-7.2-10.4-16.6-10.4-24.4c0-5.5,2-15.1,9.6-22.5c5.1-4.9,12.9-8.8,26-8.8
				c3.4,0,8.2,0.3,12.4,1c3.2,0.6,5.9,1.2,8.7,1.3c0.9,0,1.1,0.4,1.1,0.9c0,0.7-0.2,1.6-0.4,4.6c-0.1,2.7-0.1,7.3-0.2,8.4
				c-0.1,1.3-0.5,1.7-1,1.7c-0.6,0-0.7-0.6-0.7-1.7c0-3.2-1.4-6.5-3.6-8.2c-3-2.5-9.2-4.5-16.8-4.5c-10.9,0-16.2,2.9-19.2,5.7
				c-6.3,5.8-7.7,13.2-7.7,21.5c0,15.8,12.5,29.8,30.7,29.8c6.4,0,10.7-0.5,14-3.9c1.8-1.8,3-5.3,3.3-6.9c0.2-0.9,0.3-1.2,0.9-1.2
				c0.4,0,0.8,0.6,0.8,1.2s-1.2,7.7-2,10.6c-0.5,1.6-0.7,1.8-2.1,2.4c-3.5,1.4-9.9,1.8-15.4,1.8
				C491.7,118.3,483.1,115.3,476.4,109.5z"/>
		</g>
		<g>
			<path class="st0" d="M545.9,113.5c-1.3-0.6-1.6-1-1.6-2.8c0-4.4,0.4-9.6,0.5-10.9c0-1.3,0.4-2.1,1.1-2.1c0.8,0,0.9,0.8,0.9,1.3
				c0,1.1,0.3,2.8,0.8,4.3c1.8,6.1,8.2,8.1,13.6,8.1c7.4,0,11.8-4.6,11.8-10.5c0-3.6-0.9-7.2-8.4-11.6l-4.9-2.9
				c-10.1-5.9-13.4-11.4-13.4-18.7c0-10.1,9.7-16.6,21.5-16.6c5.5,0,9.9,0.8,12.1,1.4c0.8,0.2,1.2,0.5,1.2,1.1
				c0,1.1-0.3,3.4-0.3,9.9c0,1.7-0.4,2.6-1.1,2.6c-0.6,0-0.9-0.5-0.9-1.5c0-0.8-0.4-3.3-2.2-5.4c-1.3-1.6-4-3.9-9.5-3.9
				c-6.1,0-11.6,3.2-11.6,8.8c0,3.7,1.4,6.6,9,10.8l3.5,1.9c11.2,6.2,14.7,12.5,14.7,19.9c0,6.1-2.3,11-8.5,15.4
				c-4.1,2.9-9.7,3.4-14.2,3.4C554.8,115.7,549.6,115.2,545.9,113.5z"/>
			<path class="st0" d="M593.5,83.4c0-14,9.9-32.3,35.7-32.3c21.5,0,34.9,11.9,34.9,30.8s-13.8,33.7-35.7,33.7
				C603.6,115.7,593.5,98.1,593.5,83.4z M651.5,85c0-18.2-10.9-29.4-24.7-29.4c-9.5,0-20.6,5-20.6,25.4c0,16.9,9.7,30.3,25.8,30.3
				C637.9,111.2,651.5,108.4,651.5,85z"/>
			<path class="st0" d="M691.5,91c0,7.9,0.1,13.8,0.5,17.2c0.3,2.4,0.9,4,3.4,4.4c1.2,0.2,3,0.3,4.2,0.3c1.1,0,1.5,0.5,1.5,0.9
				c0,0.6-0.6,0.9-1.8,0.9c-5.4,0-11.4-0.3-13.7-0.3c-2.2,0-7.6,0.3-10.8,0.3c-1.2,0-1.7-0.2-1.7-0.9c0-0.4,0.3-0.9,1.3-0.9
				c1.3,0,2.2-0.1,3-0.3c1.7-0.4,2.2-1.9,2.5-4.4c0.4-3.5,0.4-9.6,0.4-17.5V76.2c0-12.5,0-14.8-0.1-17.4c-0.2-2.8-1-3.8-3.7-4.5
				c-0.7-0.2-2.1-0.3-3.4-0.3c-0.8,0-1.5-0.3-1.5-0.9s0.7-0.8,2-0.8c4.4,0,9.8,0.2,12.2,0.2c3.3,0,22.2,0.1,24.2,0
				c1.6-0.1,2.6-0.2,3.5-0.4c0.5-0.1,0.9-0.5,1.4-0.5c0.3,0,0.6,0.4,0.6,0.8c0,0.6-0.4,1.5-0.7,3.7c-0.1,0.9-0.3,5.7-0.4,6.7
				c-0.1,0.7-0.3,1.6-0.9,1.6s-1.1-0.4-1.1-1.4c0-0.7,0.1-1.9-0.5-3.1c-0.6-1.2-2.2-2.4-5.4-2.5l-14.1-0.3c-0.5,0-0.8,0.2-0.8,1.2
				v20c0,0.5,0.1,0.8,0.6,0.8l11.9-0.1c1.5,0,2.6,0,3.9-0.1c1.5-0.1,2.8-0.4,3.6-1.5c0.5-0.5,0.7-0.9,1.2-0.9c0.3,0,0.5,0.3,0.5,0.8
				s-0.4,2.7-0.7,5.3c-0.2,1.6-0.3,5.4-0.3,6c0,0.7-0.1,1.8-1,1.8c-0.5,0-0.8-0.6-0.8-1.2s-0.2-1.6-0.6-2.5c-0.4-1.2-1.5-2.8-4.1-3
				c-2.1-0.2-12.2-0.3-13.7-0.3c-0.4,0-0.6,0.1-0.6,0.7L691.5,91L691.5,91z"/>
			<path class="st0" d="M746.3,57.4l-12.7,0.3c-4.9,0.1-7,0.7-8.2,2.5c-0.9,1.2-1.3,2.2-1.5,2.8c-0.2,0.7-0.4,1.1-1,1.1
				s-0.8-0.5-0.8-1.4c0-1.3,1.7-9.3,1.8-10c0.2-1.1,0.5-1.6,1-1.6c0.7,0,1.5,0.7,3.7,1c2.5,0.3,5.7,0.4,8.5,0.4h34.6
				c2.7,0,4.6-0.2,5.8-0.4c1.4-0.2,2-0.4,2.3-0.4c0.6,0,0.7,0.5,0.7,1.7c0,1.7-0.2,7.9-0.2,10c-0.1,0.9-0.3,1.4-0.8,1.4
				c-0.7,0-0.9-0.4-1-1.6l-0.1-0.9c-0.2-2.1-2.4-4.6-10.1-4.8l-10.8-0.2v33.3c0,7.6,0.1,14.1,0.5,17.6c0.3,2.3,0.8,3.9,3.3,4.3
				c1.2,0.2,3.1,0.3,4.4,0.3c1,0,1.4,0.5,1.4,0.9c0,0.6-0.7,0.9-1.6,0.9c-5.6,0-11.3-0.3-13.8-0.3c-1.9,0-7.7,0.3-11.1,0.3
				c-1.1,0-1.6-0.3-1.6-0.9c0-0.4,0.3-0.9,1.4-0.9c1.3,0,2.3-0.1,3-0.3c1.7-0.4,2.2-1.9,2.5-4.4c0.4-3.5,0.4-10,0.4-17.5L746.3,57.4
				L746.3,57.4z"/>
		</g>
	</g>
</g>
<g>
	<g>
		<path class="st1" d="M137,58.2c-5.8,5.5-16.1,8.7-22.6,7.2C103.2,63,95.8,55,86.5,49c-0.8-0.5-1.6-1-2.4-1.6
			c-1.9-0.5-3.7-1.2-5.4-2c-5.1-2.3-9.2-5.8-14.9-6.7c-10.4-1.6-20.1,1-26.2,5.4c-4.8,6.1-8.4,13.1-10.5,20.8
			C38.4,47.4,54,53.7,69.5,65c25.6,18.6,50.9,35.9,71.6,22.4c0.3-2.4,0.5-4.8,0.5-7.3C141.2,72,140,66.2,137,58.2z"/>
	</g>
	<g>
		<path class="st0" d="M28.9,101.7c2.3,5.7,5.4,11,9.3,15.7c14-2.6,28,10.3,41.9,21c1,0,2,0.1,3,0.1c13.1,0,25.2-4.3,35-11.7
			C69.6,130.7,61.6,85.1,28.9,101.7z"/>
	</g>
	<path class="st2" d="M97,65.2c15.5-11.3,31.1-17.5,42.4-0.1c-3.9-14.4-13.2-26.6-25.6-34.3c-4.7-0.3-10.1,0.1-16.6,1.3
		c-21.7,4-42.3,22.5-59.3,11.5c-8.1,10-13,22.8-13,36.7c0,2.5,0.2,4.9,0.5,7.3C46,101.1,71.3,83.8,97,65.2z"/>
	<path class="st2" d="M57.2,116.6c-5.7-0.5-14.8-2.4-23.5-5.6c10.3,16.5,28.6,27.6,49.5,27.6c1,0,2,0,3-0.1
		c13.9-10.7,27.8-23.6,41.9-21c3.9-4.7,7-10,9.3-15.7C124.7,84,84.3,119,57.2,116.6z"/>
	<path class="st3" d="M68.7,34.6c9.7-1.4,19.2-7.9,28.8-10.2c-4.5-1.1-9.2-1.7-14.1-1.7c-11,0-21.3,3.1-30.1,8.5
		C57.4,34.5,63.1,35.4,68.7,34.6z"/>
</g>
</svg>
